<?xml version="1.0" standalone="no"?>
<!DOCTYPE svg PUBLIC "-//W3C//DTD SVG 20010904//EN"
 "http://www.w3.org/TR/2001/REC-SVG-20010904/DTD/svg10.dtd">
<svg version="1.0" xmlns="http://www.w3.org/2000/svg"
 width="512.000000pt" height="512.000000pt" viewBox="0 0 512.000000 512.000000"
 preserveAspectRatio="xMidYMid meet">

<g transform="translate(0.000000,512.000000) scale(0.100000,-0.100000)"
fill="#000000" stroke="none">
<path d="M2005 5114 c-460 -49 -813 -185 -1160 -447 -167 -127 -375 -354 -502
-549 -398 -609 -450 -1429 -132 -2088 463 -959 1508 -1438 2537 -1160 l41 10
-1 128 c0 76 7 159 16 207 9 44 16 83 16 86 0 4 -29 -4 -65 -17 -477 -173
-1038 -120 -1478 139 -321 189 -568 462 -719 792 -116 254 -160 457 -160 740
0 176 12 279 52 435 208 827 996 1395 1845 1330 517 -39 972 -289 1287 -705
146 -193 262 -447 313 -684 10 -45 21 -80 24 -78 123 67 225 83 324 50 31 -11
57 -17 57 -13 0 24 -44 218 -66 290 -101 332 -265 612 -510 869 -331 348 -766
573 -1249 645 -102 15 -396 28 -470 20z"/>
<path d="M1965 4315 c-297 -46 -561 -180 -771 -389 -430 -429 -527 -1090 -238
-1624 83 -154 214 -314 267 -327 57 -15 117 36 117 99 0 13 -16 44 -35 68
-166 205 -230 322 -280 510 -110 416 17 860 331 1158 458 436 1175 431 1633
-9 29 -29 51 -54 48 -57 -3 -3 -174 -95 -382 -204 l-376 -199 -92 0 c-108 1
-163 -14 -240 -65 -201 -133 -229 -425 -57 -596 122 -123 308 -150 462 -68 94
50 175 155 193 251 5 24 18 44 39 60 17 14 171 140 341 281 250 208 310 254
317 241 19 -33 67 -183 84 -260 24 -111 24 -351 0 -460 -47 -216 -123 -367
-284 -565 -52 -64 -59 -88 -37 -133 19 -41 61 -62 104 -52 60 13 205 199 291
373 89 181 129 342 137 557 8 223 -29 420 -113 604 l-35 77 39 42 c47 51 66
105 52 152 -25 89 -121 124 -217 80 l-42 -19 -63 66 c-104 108 -249 214 -396
287 -225 113 -542 161 -797 121z"/>
<path d="M4053 2843 c-548 -742 -859 -1352 -898 -1758 -13 -138 29 -361 96
-505 70 -150 211 -318 343 -409 76 -53 225 -119 322 -143 125 -31 313 -31 438
0 321 80 579 314 700 637 58 154 78 345 51 500 -33 193 -100 377 -229 635
-163 325 -377 663 -658 1043 -44 59 -81 107 -83 107 -2 0 -39 -48 -82 -107z
m-28 -646 c-8 -37 -42 -161 -76 -275 -230 -775 -252 -968 -154 -1362 13 -52
31 -114 39 -137 8 -24 13 -43 10 -43 -19 0 -128 83 -184 141 -152 156 -232
426 -185 633 33 152 109 313 326 694 78 135 161 286 185 335 25 49 47 87 49
85 2 -2 -2 -34 -10 -71z"/>
</g>
</svg>
